<?xml version="1.0" standalone="no"?>
<!DOCTYPE svg PUBLIC "-//W3C//DTD SVG 20010904//EN" "http://www.w3.org/TR/2001/REC-SVG-20010904/DTD/svg10.dtd">
<!-- Created using Krita: https://krita.org -->
<svg xmlns="http://www.w3.org/2000/svg" 
    xmlns:xlink="http://www.w3.org/1999/xlink"
    xmlns:krita="http://krita.org/namespaces/svg/krita"
    xmlns:sodipodi="http://sodipodi.sourceforge.net/DTD/sodipodi-0.dtd"
    width="240pt"
    height="240pt"
    viewBox="0 0 240 240">
<defs/>
<path id="shape0" transform="translate(6.2732664888005, 17.6602432589799)" fill="#3b2300" fill-rule="evenodd" stroke="none" stroke-width="9.6" stroke-linecap="square" stroke-linejoin="bevel" d="M0.0411529 93.1152C1.369 86.4298 1.71981 80.8663 24.1902 74.7116C46.6607 68.5568 49.3914 67.8595 81.5591 66.7529C113.727 65.6462 126.971 63.6755 133.48 63.3116C139.988 62.9478 157.956 57.0587 168.113 53.4428C175.067 50.9672 183.846 46.2683 190.76 43.8165C196.12 41.9158 202.887 34.4792 208.371 29.9153C217 22.7351 223.839 0.91902 225.57 0.157211C229.999 -1.79183 227.225 14.9936 226.513 16.6659C224.912 20.4237 222.401 26.4878 219.768 29.8092C215.377 35.3492 204.325 46.9401 206.899 49.2436C209.046 51.1649 213.961 48.0135 215.557 49.7894C216.529 50.8711 216.732 54.5775 215.969 55.8987C214.731 58.0436 209.842 59.2032 207.105 60.3555C202.165 62.4353 195.094 64.0306 190.171 66.1313C188.711 66.7544 186.719 67.634 185.459 68.572C184.001 69.6573 181.043 71.8416 181.189 72.9834C181.25 73.4647 182.67 74.2893 183.339 74.3326C185.669 74.4834 189.013 71.7855 191.408 70.6185C193.846 69.4306 197.011 66.5778 199.477 66.48C200.432 66.4421 202.098 67.1534 202.717 67.8747C203.684 69.0021 204.334 71.7906 203.983 73.2108C203.476 75.2637 200.737 77.8846 198.859 79.1836C196.062 81.1181 191.222 82.2752 187.845 83.2312C186.634 83.5739 184.857 83.7395 183.663 84.1863C176.789 86.7569 176.712 94.3583 161.899 95.8288C147.086 97.2992 134.785 103.315 122.436 103.598C112.189 103.833 88.0225 102.092 82.7076 103.598C77.3928 105.104 75.6101 104.06 76.2875 107.123C76.9648 110.185 79.024 108.836 79.9982 109.775C80.7299 110.481 82.009 111.63 82.0597 112.474C82.1178 113.44 80.9543 115.203 80.0866 115.794C78.3033 117.008 74.5167 117.33 72.2528 117.037C69.1942 116.641 64.9996 114.64 62.4165 112.853C60.2428 111.349 58.3083 107.929 56.1142 106.471C47.8016 100.947 34.2805 94.6879 24.5731 93.8883C18.2823 93.3702 7.92604 100.813 3.13341 98.6333C1.96518 98.1018 -0.335368 95.0109 0.0411529 93.1152Z" sodipodi:nodetypes="czzzssssssssssssssssssssszszzssssssscc"/><path id="shape01" transform="translate(4.77762834302684, 83.705136943987)" fill="#af8f68" fill-rule="evenodd" stroke-opacity="0" stroke="#000000" stroke-width="0" stroke-linecap="square" stroke-linejoin="bevel" d="M0.00538526 32.4974C0.0997477 31.6834 3.05662 31.0871 3.98115 30.1174C4.71542 29.3472 4.93024 27.5023 5.71871 26.8278C6.3126 26.3197 7.91621 26.5443 8.36922 26.0091C8.76637 25.5399 8.35264 24.1882 8.69317 23.6139C9.3991 22.4234 11.5298 21.5504 12.7278 20.6427C14.0133 19.6688 15.8782 18.4865 16.9981 17.3379C17.669 16.6498 18.2413 15.294 19.0007 14.7153C19.9143 14.0192 21.5586 13.3894 22.7114 13.2297C23.2922 13.1493 24.3603 13.1851 24.8024 13.5177C25.4867 14.0326 26.1595 15.65 26.1865 16.5799C26.2177 17.6493 24.5136 19.3474 24.8024 20.1879C24.8923 20.4497 25.6887 20.6405 25.8331 20.9459C26.0851 21.4785 25.4798 22.9808 25.7742 23.1743C28.043 24.6651 35.7284 15.6704 41.3533 15.9887C46.9783 16.3071 49.474 17.3331 52.8978 17.0954C56.6966 16.8316 56.8146 19.1267 65.4141 14.2757C74.0135 9.42467 77.2755 20.477 81.7 19.6422C82.4792 19.4951 83.7686 18.4751 84.0855 17.7321C84.3932 17.0104 83.5612 15.5591 83.8204 14.7911C84.1306 13.8721 85.3797 12.5762 86.2942 12.0927C96.8652 6.50454 115.601 7.64219 128.202 6.05926C134.795 5.23095 143.776 3.74701 150.466 3.63374C154.594 3.56384 160.194 5.15553 164.249 4.72522C168.377 4.28707 173.686 1.25943 177.855 0.707959C181.377 0.241892 188.121 -0.79015 189.9 1.07179C190.175 1.35993 190.164 2.56395 189.9 2.9364C189.356 3.70336 186.945 3.45633 186.277 4.2098C185.754 4.80075 185.357 6.64856 185.718 7.1659C185.94 7.48417 187.485 7.21515 187.573 7.46909C187.884 8.36104 184.647 11.1162 183.126 12.3504C181.466 13.6978 178.275 14.566 176.794 16.0948C175.969 16.9467 175.749 18.9427 174.91 19.7634C171.678 22.9238 165.111 25.4022 160.597 26.8126C153.066 29.1657 142.24 29.8385 134.327 30.7389C124.911 31.8104 112.29 32.4906 102.845 33.2402C96.0776 33.7774 87.0419 34.2672 80.3158 35.0897C77.3416 35.4534 72.723 35.2437 70.4206 36.7572C70.4082 36.7654 70.4143 36.8602 70.3912 36.8785C69.0698 37.9242 65.1819 36.3312 63.2642 36.9998C61.4674 37.6262 59.785 40.5725 57.9927 41.1232C56.7911 41.4923 54.4496 41.4727 53.5162 40.8048C53.0439 40.4668 52.9681 39.2946 52.5149 38.8947C50.6979 37.2911 46.8604 36.863 44.4456 35.9689C41.6467 34.9327 37.9485 32.7964 35.0805 32.5884C31.5045 32.329 26.5802 34.2965 22.947 35.0745C20.8668 35.52 18.089 36.6326 15.9968 36.6663C15.0459 36.6816 13.7524 36.0595 12.7867 36.0447C10.8835 36.0156 8.19736 37.5181 6.42551 37.1665C4.34826 36.7544 -0.177573 34.0758 0.00538526 32.4974Z" sodipodi:nodetypes="cssssssssssssszszssssssssssssssssssssssssssssssscc"/><path id="shape02" transform="translate(13.2272112540491, 103.065091954005)" fill="#141010" fill-rule="evenodd" stroke-opacity="0" stroke="#000000" stroke-width="0" stroke-linecap="square" stroke-linejoin="bevel" d="M0.214135 3.4657C0.645266 3.80267 2.73657 2.85683 3.51255 2.22262C4.03669 1.79424 4.94598 0.500173 4.7789 0.20641C4.55977 -0.178867 2.49121 0.0324426 1.68664 0.373165C1.06078 0.638206 -0.584026 2.84187 0.214135 3.4657Z" sodipodi:nodetypes="csscc"/><path id="shape1" transform="translate(3.61517173151969, 109.370374369356)" fill="#141010" fill-rule="evenodd" stroke-opacity="0" stroke="#000000" stroke-width="0" stroke-linecap="square" stroke-linejoin="bevel" d="M0.578839 6.33191C1.14394 6.75673 3.52834 5.73677 4.4957 5.05851C5.20449 4.56155 6.26696 3.43165 6.26271 2.73911C6.25769 1.92117 4.94519 0.254332 4.1423 0.0255621C3.57901 -0.134939 2.43841 0.495556 1.90409 0.935131C1.21471 1.50228 -1.05384 5.10455 0.578839 6.33191Z" sodipodi:nodetypes="cssscc"/>
</svg>
