<?xml version="1.0" standalone="no"?>
<!DOCTYPE svg PUBLIC "-//W3C//DTD SVG 20010904//EN" "http://www.w3.org/TR/2001/REC-SVG-20010904/DTD/svg10.dtd">
<!-- Created using Krita: https://krita.org -->
<svg xmlns="http://www.w3.org/2000/svg" 
    xmlns:xlink="http://www.w3.org/1999/xlink"
    xmlns:krita="http://krita.org/namespaces/svg/krita"
    xmlns:sodipodi="http://sodipodi.sourceforge.net/DTD/sodipodi-0.dtd"
    width="240pt"
    height="240pt"
    viewBox="0 0 240 240">
<defs/>
<path id="shape0" transform="translate(52.2066491135109, 34.0695652173913)" fill="#3b2300" fill-rule="evenodd" stroke="none" stroke-width="0.48" stroke-linecap="square" stroke-linejoin="bevel" d="M0.494093 0C7.66605 2.71239 28.9331 15.1186 36.6909 40.0195C44.4487 64.9204 42.8415 101.906 67.7934 102.616C92.7452 103.326 89.7211 103.066 90.2806 95.904C90.8401 88.7416 94.2967 88.37 96.508 85.9304C99.4426 82.693 99.0135 75.1304 94.8782 77.8727C90.7428 80.615 78.8409 84.5576 73.0336 83.1193C71.2298 82.6726 67.785 80.2143 67.7934 78.6991C67.8173 74.3301 77.7556 55.0496 87.5075 53.2049C97.2593 51.3601 99.6703 51.3016 111.979 56.0473C124.288 60.793 128.905 62.3607 137.667 75.7315C146.429 89.1023 141.368 92.773 149.587 95.1527C157.805 97.5324 162.821 111.972 151.095 108.376C139.369 104.78 137.48 102.33 134.395 109.972C131.311 117.614 115.867 132.355 110.021 134.152C104.175 135.949 90.7049 139.077 83.8343 138.541C76.9636 138.004 69.6933 140.309 63.8141 144.726C57.935 149.143 48.7714 136.475 49.5835 144.714C50.3957 152.952 41.7974 156.07 40.0965 154.944C39.7842 154.737 35.4118 151.211 38.0045 149.034C38.2011 148.869 39.9189 147.853 39.9992 147.619C40.0153 147.572 39.977 147.452 39.9749 147.381C39.7784 140.865 29.4858 130.87 41.1668 125.631C52.8478 120.391 41.7739 121.707 42.2858 119.921C43.4585 115.828 36.1733 104.553 33.8204 111.982C31.4675 119.41 30.7953 116.515 30.9986 118.518C31.3369 121.851 27.7532 132.004 23.4333 122.475C19.1134 112.946 19.9081 113.613 20.9764 110.229C21.971 107.078 24.5392 101.632 26.62 98.8216C27.6495 97.431 33.9089 96.665 33.0663 95.4908C28.036 88.4811 25.5649 79.3675 27.0335 62.1203C28.5022 44.8732 20.4899 24.2421 11.2461 16.5663C2.00229 8.89043 1.91963 9.1271 0.39679 5.02122C-0.081506 3.73163 -0.215177 0.155222 0.494093 0Z" sodipodi:nodetypes="czzzszsszzzzzzzzzzsssszszszssszzcc"/><path id="shape01" transform="translate(92.6980613205271, 95.8994037946878)" fill="#af8f68" fill-rule="evenodd" stroke="#af8f68" stroke-width="0.48" stroke-linecap="square" stroke-linejoin="bevel" d="M8.48398 49.1629C15.3345 45.6289 18.3474 52.9245 36.0938 49.5135C53.8402 46.1024 48.8841 47.0885 52.8786 42.2008C55.8155 38.607 57.7463 50.9148 58.9114 52.7691C61.3578 56.6629 70.0353 48.1786 67.1578 42.5889C64.2803 36.9993 57.5455 34.7307 57.6221 33.0724C57.7622 30.0391 63.5538 23.5554 64.7495 20.9389C64.78 20.8722 63.002 17.1048 61.9764 16.6564C60.0347 15.8075 55.6712 19.3092 52.8542 19.887C51.6622 20.1315 49.9432 19.9511 48.7675 20.2502C46.0153 20.9502 41.7456 24.0514 40.0589 24.1006C37.1824 24.1844 32.3091 27.1935 30.0123 24.1006C27.7155 21.0077 33.4977 22.8354 34.2207 19.9872C34.4869 18.9385 37.4831 20.3184 38.1371 19.7117C38.7112 19.1792 37.2356 17.3544 37.6506 16.4686C38.054 15.6077 39.1196 14.4286 39.9616 14.102C41.1338 13.6472 41.5184 15.567 44.5591 14.3274C47.5999 13.0877 48.354 10.6335 50.3973 8.80529C52.4407 6.97712 53.8128 6.40167 55.1409 5.18651C56.15 4.26314 57.1862 2.30798 58.3032 1.7806C61.1962 0.414694 67.547 -1.5001 69.9796 1.93086C72.4122 5.36181 75.4529 7.61573 79.5883 8.68007C83.7237 9.74442 85.3911 12.141 86.3508 14.3023C87.6966 17.3331 85.9854 20.4801 86.4481 24.1006C86.6347 25.5602 87.3121 30.0242 87.2266 31.4321C86.8223 38.0882 88.978 44.2543 78.3963 53.583C67.8146 62.9117 55.6274 70.1493 52.2704 69.7361C48.9134 69.3229 48.0864 69.4105 44.7781 70.7002C41.4698 71.99 41.713 71.4766 36.4586 71.0383C31.2043 70.6001 33.6164 70.55 27.3019 71.99C20.9874 73.43 19.8685 73.8682 16.0736 72.1778C12.2788 70.4874 12.7653 71.7396 9.33539 69.7736C5.90545 67.8077 3.93506 70.6627 1.74574 65.8919C-0.443582 61.1211 -0.930098 55.5114 2.37821 53.6707C5.68652 51.83 5.25152 50.8304 8.48398 49.1629Z" sodipodi:nodetypes="czsszsssssszsssszzsszzssszzzzzzzzcc"/><path id="shape02" transform="matrix(0.993535451393789 0.113522274570879 -0.113522274570879 0.993535451393789 119.988826005595 112.880640158171)" fill="#141010" fill-rule="evenodd" stroke="#141010" stroke-width="0.48" stroke-linecap="square" stroke-linejoin="bevel" d="M3.36892 0.902079C4.01355 1.22024 5.56845 -0.0192297 6.01844 0.991238C6.46844 2.00171 6.61927 1.85158 6.68293 2.25008C6.76877 2.78749 7.0001 3.16928 6.3591 4.14152C5.7181 5.11375 3.42622 7.34643 2.70444 6.82324C1.98266 6.30005 0.677062 6.74499 0.353514 4.66798C0.0299651 2.59097 -0.348312 1.47329 0.610055 0.791692C1.56842 0.110092 1.30313 -0.129617 2.06266 0.0656835C2.8222 0.260984 2.63413 0.539416 3.36892 0.902079Z" sodipodi:nodetypes="czszzzzcc"/><path id="shape1" transform="translate(126.586129927285, 106.721288394303)" fill="#141010" fill-rule="evenodd" stroke="#141010" stroke-width="0.48" stroke-linecap="square" stroke-linejoin="bevel" d="M3.56047 5.58658C2.4872 6.70718 -1.28602 6.91035 0.449807 3.42189C2.18564 -0.0665742 3.70533 -0.202642 4.83757 0.111451C5.96981 0.425543 6.37466 0.785277 6.33361 2.04841C6.29256 3.31154 5.81821 3.58389 5.07019 4.41971C4.32217 5.25554 4.32461 5.65453 3.56047 5.58658Z" sodipodi:nodetypes="czzzcc"/>
</svg>
