<?xml version="1.0" standalone="no"?>
<!DOCTYPE svg PUBLIC "-//W3C//DTD SVG 20010904//EN" "http://www.w3.org/TR/2001/REC-SVG-20010904/DTD/svg10.dtd">
<!-- Created using Krita: https://krita.org -->
<svg xmlns="http://www.w3.org/2000/svg" 
    xmlns:xlink="http://www.w3.org/1999/xlink"
    xmlns:krita="http://krita.org/namespaces/svg/krita"
    xmlns:sodipodi="http://sodipodi.sourceforge.net/DTD/sodipodi-0.dtd"
    width="240pt"
    height="240pt"
    viewBox="0 0 240 240">
<defs/>
<path id="shape0" transform="translate(2.79229851072734, 45.1423786356865)" fill="#3b2300" fill-rule="evenodd" d="M52.0292 15.7681C54.7637 14.0741 58.7937 12.3187 61.8264 11.2039C66.7324 9.40046 73.5587 7.51723 78.7024 6.55518C85.9554 5.19863 95.8988 4.36843 103.296 4.03832C110.109 3.73425 119.364 3.4219 126.101 4.30127C130.632 4.89269 136.638 6.56608 140.97 8.06718C146.25 9.8967 153.262 12.8412 158.065 15.6741C163.061 18.6202 169.298 23.4828 173.609 27.3851C179.021 32.2836 185.804 39.5128 190.175 45.3507C194.938 51.7114 199.007 61.9987 203.877 68.2936C205.259 70.0805 207.455 72.2508 209.204 73.6842C210.817 75.006 213.408 76.18 215.006 77.4971C216.833 79.0035 218.884 81.4783 220.552 83.1788C221.497 84.1418 222.925 85.2207 223.69 86.278C225.177 88.332 226.252 91.6935 227.54 93.9037C228.368 95.3256 230.018 96.9609 230.587 98.4585C231.242 100.186 231.772 102.942 231.389 104.666C231.081 106.054 229.812 108.037 228.689 108.902C227.687 109.673 225.657 110.378 224.42 110.273C213.502 109.344 198.942 98.7732 189.354 91.9691C182.316 86.9742 175.367 76.837 168.209 72.1159C165.531 70.3494 161.399 68.4164 158.284 67.7489C157.577 67.5973 156.562 67.6754 155.839 67.7677C154.567 67.9304 152.897 68.7409 151.607 68.8759C149.511 69.0951 146.531 69.1053 144.528 68.566C143.148 68.1945 140.997 67.3744 140.204 66.3214C139.604 65.5242 139.188 63.6655 139.438 62.7058C139.717 61.6335 141.199 60.2727 142.211 59.6442C143.247 59.0008 145.306 59.2049 146.298 58.5267C146.979 58.0607 146.076 56.9963 146.17 56.2634C146.281 55.4026 143.057 53.4573 142.503 52.6571C140.369 49.5757 138.582 49.839 135.315 48.1681C130.344 45.6265 123.836 44.3396 118.074 43.6978C113.748 43.216 107.942 41.7778 103.624 41.2279C100.551 40.8365 96.9744 39.1101 93.9 38.758C92.2233 38.5659 89.689 37.6218 88.0983 38.0254C86.8433 38.3439 85.2138 39.4369 84.1575 40.27C81.8521 42.0881 79.6942 45.6448 77.4071 47.4825C75.7914 48.7806 73.3677 50.5238 71.4229 51.0794C68.3429 51.9592 63.2903 52.2641 60.4216 51.1639C58.8238 50.5511 56.3517 48.4817 55.97 46.9847C55.7654 46.1825 56.4147 44.5534 57.0099 43.8574C58.1187 42.5609 60.7794 41.6813 62.5014 41.0307C63.5716 40.6263 65.4174 40.7446 66.2233 40.0821C67.3276 39.1744 68.9234 36.1818 68.4856 35.3301C68.148 34.6734 65.6054 34.4211 64.4718 34.6164C62.9135 34.8848 61.1704 36.9218 59.6006 37.3868C57.6347 37.9692 54.454 38.4526 52.6495 37.8001C51.5217 37.3922 49.6077 35.7789 49.5297 34.8136C49.4548 33.8857 52.3386 32.0843 52.1022 31.4609C51.9639 31.0964 50.3842 31.0842 49.6392 31.0101C47.6956 30.8168 45.0671 30.9313 43.1077 30.8974C43.1077 30.8974 43.1115 30.9158 43.1077 30.9162C40.9813 31.1732 36.2135 30.451 33.274 30.118C29.5277 29.6935 24.9388 28.9499 21.3604 27.8828C18.5805 27.0538 14.8094 25.4877 12.5667 23.7319C9.9911 21.7154 6.67777 18.2958 4.94053 15.4394C3.91128 13.747 3.027 11.1776 2.22213 9.3444C1.62863 7.99268 1.17459 6.0511 0.945023 4.62997C0.776183 3.58476 -0.427367 0.676849 0.160516 0.0188372C0.35866 -0.202944 1.87927 1.60532 2.22213 1.6811C3.16634 1.88978 3.68667 2.91798 4.35671 3.71901C5.49263 5.077 6.57769 6.831 7.53123 8.34892C8.75515 10.2973 10.998 12.8127 12.6944 14.3124C15.0151 16.364 18.3886 18.4925 21.2692 19.75C23.4548 20.7041 26.6219 21.5846 28.9683 21.8536C31.6551 22.1617 35.3634 21.8887 38.0723 21.431C40.7043 20.9863 44.2496 20.2001 46.7018 19.1959C48.4059 18.498 50.3293 16.8211 52.0292 15.7681Z" sodipodi:nodetypes="csssssssssssssssssssssssssssssssssssssssssssssssssssssssssssssssssscc"/><path id="shape01" transform="translate(91.1823885745142, 81.7220733892178)" fill="#af8f68" fill-rule="evenodd" stroke-opacity="0" stroke="#000000" stroke-width="0" stroke-linecap="square" stroke-linejoin="bevel" d="M17.6241 7.88818C16.0721 7.76716 13.943 7.57368 12.3697 7.39984C11.1359 7.2635 9.43773 7.1917 8.24651 6.86453C6.8463 6.47996 5.05779 5.52237 3.72192 4.88297C2.75398 4.41967 1.24373 3.95313 0.5474 3.21131C0.261757 2.90701 -0.00495478 2.28224 6.98842e-05 1.88714C0.00669872 1.3659 0.345308 0.373638 0.729844 0.168532C1.88139 -0.445683 4.59388 0.784085 6.20315 1.22036C7.43227 1.55358 9.00169 2.43371 10.2534 2.64784C12.0029 2.94712 14.4787 2.46805 16.274 2.60088C18.5703 2.77078 21.5747 3.56259 23.8637 3.82175C26.281 4.09544 29.5499 4.06517 31.9642 4.35705C33.909 4.59219 36.4342 5.2417 38.3679 5.46523C39.8416 5.63558 41.872 5.65114 43.3486 5.88784C44.9329 6.1418 47.1728 6.42184 48.53 7.16505C50.3358 8.15388 52.0587 10.6879 53.6749 12.0767C54.6072 12.8778 56.0418 13.7575 56.8859 14.6405C57.8163 15.6138 59.1209 17.0762 59.5314 18.3031C59.6961 18.7955 59.8004 19.6973 59.5679 20.0875C59.2871 20.5585 58.7258 21.3174 58.1448 21.2708C56.992 21.1784 55.0817 19.1682 53.9668 18.4628C52.5112 17.5419 50.4496 16.419 48.8584 15.7393C46.7839 14.8531 43.9058 13.8126 41.7066 13.3539C40.6006 13.1233 39.0059 13.2152 37.8936 12.9595C36.5303 12.6461 34.8052 11.7578 33.4602 11.3066C31.7172 10.7219 29.3306 9.9918 27.5308 9.55045C25.5073 9.05425 22.7787 8.53293 20.7256 8.1981C19.8929 8.06229 18.7694 7.97749 17.6241 7.88818Z" sodipodi:nodetypes="cssssssssssssssssssssssssscc"/><path id="shape1" transform="translate(158.685185630746, 111.487416896411)" fill="#af8f68" fill-rule="evenodd" stroke-opacity="0" stroke="#000000" stroke-width="0" stroke-linecap="square" stroke-linejoin="bevel" d="M0.0743203 1.2818C-0.121564 1.69415 0.0982124 2.71664 0.402718 3.09432C1.27442 4.17549 3.86126 4.38228 5.27396 5.07588C7.03122 5.93866 9.19467 7.4162 10.875 8.41919C10.875 8.41919 10.8972 8.46221 10.9115 8.47554C11.7499 9.25759 13.4354 9.66047 14.3596 10.3726C15.2793 11.0811 16.2278 12.3799 17.0598 13.2088C17.9344 14.08 19.2129 15.1267 20.1249 15.9604C21.2783 17.0149 22.8104 18.4547 23.9379 19.5479C25.4375 21.0017 27.3889 22.9575 28.9004 24.3844C30.0813 25.4992 31.7172 26.9413 32.9324 28.0282C34.0602 29.037 35.5225 30.43 36.709 31.3621C38.1597 32.5019 40.1696 33.9338 41.7444 34.8839C43.2853 35.8135 45.4835 36.8112 47.0717 37.6637C48.1403 38.2372 49.5154 39.0596 50.5747 39.6359C51.6173 40.2032 53.0867 40.8321 54.0776 41.4766C54.6952 41.8783 55.3537 42.7419 56.0115 42.9886C56.8046 43.286 58.0799 43.1067 58.9671 43.1294C59.7548 43.1496 60.8082 43.0889 61.5942 43.1294C62.5491 43.1788 63.8528 43.2425 64.7688 43.4863C65.5553 43.6957 66.5666 44.6389 67.3047 44.5945C67.892 44.5591 68.9994 43.9646 69.2021 43.4769C69.4529 42.8737 69.0115 41.0918 68.5271 40.838C68.2676 40.702 67.5843 41.3323 67.1953 41.3075C65.935 41.2272 64.328 39.6909 63.0173 39.2321C62.0157 38.8815 60.5514 38.6028 59.4779 38.4526C58.8877 38.37 57.9874 38.5392 57.4528 38.3211C55.9762 37.7186 54.5776 35.5753 53.1836 34.6397C51.8827 33.7666 49.9144 32.9432 48.4948 32.2543C47.2745 31.6622 45.5072 31.0493 44.3716 30.3103C43.2237 29.5634 41.8835 28.1661 40.8504 27.2112C39.6802 26.1296 38.1534 24.6034 36.9826 23.5016C35.3009 21.9192 33.0421 19.7916 31.3086 18.2519C29.9484 17.0438 27.9016 15.5824 26.7476 14.1854C25.8469 13.0952 25.2545 11.0686 24.2663 10.0814C23.3971 9.21312 21.6735 8.55024 20.5627 7.89327C19.2871 7.13881 17.5464 6.16171 16.2935 5.35762C15.2356 4.67864 14.109 3.37677 13.0096 2.92528C12.3303 2.64633 11.2563 2.68243 10.5101 2.54962C9.24516 2.32451 7.51646 2.09424 6.29564 1.70441C5.26268 1.37456 3.94398 0.418359 2.8657 0.145449C2.59354 0.0765636 0.924234 -0.507366 0.0743203 1.2818Z" sodipodi:nodetypes="cssssssssssssssssssssssssssssssssssssssscc"/><path id="shape02" transform="translate(226.689822931971, 143.666125260787)" fill="#141010" fill-rule="evenodd" stroke-opacity="0" stroke="#000000" stroke-width="0" stroke-linecap="square" stroke-linejoin="bevel" d="M1.48223 11.496C1.1457 11.2167 1.09449 10.2584 1.08086 9.72413C1.06884 9.25321 1.37972 8.6161 1.35452 8.14952C1.31185 7.35929 0.818071 6.33201 0.606507 5.54813C0.414217 4.83566 -0.0502401 3.8469 0.0044432 3.14395C0.066026 2.35231 0.530696 1.04661 1.10519 0.558213C1.58012 0.154456 2.67023 0.0496334 3.34924 0.0197787C4.50158 -0.0308878 6.41877 -0.0299647 7.21704 0.602039C7.73457 1.01178 7.96969 2.2388 8.15358 2.97491C8.45112 4.16593 8.82035 5.91194 8.61577 7.08517C8.47065 7.91743 7.87067 9.09029 7.30218 9.72726C6.89731 10.1809 6.09815 10.6167 5.53248 10.898C4.91199 11.2067 4.01259 11.6081 3.33708 11.6775C2.8832 11.7241 1.95381 11.8873 1.48223 11.496Z" sodipodi:nodetypes="cssssssssssscc"/><path id="shape11" transform="translate(219.507299917769, 134.559204892386)" fill="#141010" fill-rule="evenodd" stroke-opacity="0" stroke="#000000" stroke-width="0" stroke-linecap="square" stroke-linejoin="bevel" d="M5.85513 7.15453C5.5388 7.35403 4.77211 7.29299 4.37734 7.15453C3.64505 6.89767 2.81253 6.02408 2.23667 5.44531C1.64282 4.84847 0.844637 3.97167 0.485211 3.22583C0.220763 2.67707 -0.0873281 1.74414 0.023021 1.17853C0.0913701 0.828192 0.463652 0.259697 0.771039 0.111047C1.18622 -0.0897298 2.08271 0.0041539 2.5225 0.214352C3.10478 0.49266 3.62625 1.42288 4.09759 1.94235C4.7158 2.62369 5.80265 3.42094 6.1592 4.22131C6.35857 4.66883 6.3885 5.42893 6.33556 5.93053C6.30515 6.21868 6.30223 6.87255 5.85513 7.15453Z" sodipodi:nodetypes="csssssssscc"/>
</svg>
