<?xml version="1.0" standalone="no"?>
<!DOCTYPE svg PUBLIC "-//W3C//DTD SVG 20010904//EN" "http://www.w3.org/TR/2001/REC-SVG-20010904/DTD/svg10.dtd">
<!-- Created using Krita: https://krita.org -->
<svg xmlns="http://www.w3.org/2000/svg" 
    xmlns:xlink="http://www.w3.org/1999/xlink"
    xmlns:krita="http://krita.org/namespaces/svg/krita"
    xmlns:sodipodi="http://sodipodi.sourceforge.net/DTD/sodipodi-0.dtd"
    width="240pt"
    height="240pt"
    viewBox="0 0 240 240">
<defs/>
<path id="shape0" transform="translate(46.7880246536773, 17.9708536277891)" fill="#3b2300" fill-rule="evenodd" d="M62.8268 68.5439C63.2722 66.3986 64.6535 63.7116 65.0648 61.5693C65.561 58.985 65.7925 55.4089 65.7216 52.7791C65.6804 51.2497 64.743 49.0475 65.0405 47.5951C65.5728 44.9957 68.4156 41.9805 69.8083 39.5436C71.781 36.0918 73.8574 31.0898 76.2303 27.9484C78.3187 25.1837 81.8617 21.967 84.5497 19.7342C86.7496 17.9069 89.8908 15.4846 92.4556 14.2246C95.6116 12.6743 100.419 11.799 103.791 10.6434C106.926 9.56941 111.095 8.09002 114.154 6.82428C115.912 6.09686 118.904 5.54517 119.846 4.21975C120.349 3.51398 120.571 1.60516 120.163 0.901493C119.895 0.43939 118.735 0.0878403 118.095 0.0249713C115.695 -0.210822 112.231 1.28623 109.727 1.86567C105.571 2.82723 99.9905 4.00864 95.9099 5.23401C92.7808 6.17367 88.6718 7.70094 85.6444 8.94045C83.0156 10.0167 79.4466 11.471 77.0087 12.9224C74.2369 14.5725 70.8777 17.3679 68.3488 19.3961C65.0777 22.0195 60.8233 25.6676 57.7427 28.5119C55.8035 30.3024 53.2502 32.7465 51.491 34.7102C49.9282 36.4546 48.205 39.1989 46.5529 40.8834C45.7592 41.6926 44.3848 43.4254 43.6094 43.3251C43.4315 43.3021 43.1179 42.8281 43.0986 42.5989C42.9729 41.1096 44.676 38.7973 45.6042 37.3272C46.6281 35.7054 48.6791 33.9874 49.6666 32.3561C50.3241 31.2698 51.0715 29.6522 51.2964 28.4243C51.5472 27.0545 51.535 24.9694 51.1504 23.6284C50.8332 22.5223 50.0112 20.6723 49.1071 20.1975C48.5109 19.8845 47.1688 20.0715 46.4556 20.3352C45.309 20.7591 44.0079 22.085 43.0986 22.9773C42.0519 24.0045 40.9053 25.6154 40.0335 26.7964C39.2151 27.9053 38.1226 29.3843 37.455 30.578C36.6744 31.9738 35.7474 33.9171 35.2414 35.4239C34.838 36.625 34.7892 38.3958 34.317 39.5561C33.8986 40.5843 33.181 42.1159 32.3709 42.8618C31.4582 43.7022 29.6159 44.1411 28.4545 44.7276C26.8892 45.518 24.6552 46.4056 23.2974 47.4698C21.9067 48.5598 20.4729 50.6072 19.308 51.9902C18.265 53.2283 16.5693 54.7668 15.9753 56.1975C15.0307 58.4727 14.914 62.1632 14.9537 64.7123C15.0046 67.9911 15.5945 72.4971 16.5835 75.6062C17.0003 76.9166 18.4378 78.428 18.6755 79.7384C18.949 81.246 18.2249 83.4425 18.0917 85.0351C17.9001 87.3252 17.7321 90.3364 17.6295 92.6107C17.5283 94.8517 17.4817 97.7994 17.4592 100.024C17.4319 102.72 17.2083 106.349 17.4592 109.027C17.565 110.156 18.5986 112.227 18.116 112.871C17.7493 113.36 16.0101 113.3 15.1483 113.184C13.7521 112.995 11.6869 112.312 10.6237 111.431C9.63489 110.612 9.11936 108.587 8.19108 107.649C7.34939 106.799 5.85378 105.578 4.73682 105.395C3.99495 105.274 2.67476 105.627 2.08531 106.097C1.22149 106.784 0.469783 108.52 0.236552 109.653C-0.265384 112.091 0.0677807 115.903 0.893348 118.268C1.4527 119.87 2.99283 121.822 4.20166 123.039C5.18586 124.029 7.18142 124.705 8.14243 125.718C9.3464 126.988 10.1039 129.514 11.2561 130.877C15.797 136.25 23.177 142.915 29.2815 146.254C32.2028 147.852 38.6447 147.252 40.1552 149.422C40.6122 150.078 39.9185 151.822 39.8633 152.853C39.7931 154.162 39.8999 155.928 39.7903 157.235C39.6889 158.444 39.4345 160.117 39.0362 161.267C38.7865 161.988 38.2758 162.896 37.8442 163.521C36.9036 164.884 35.5067 166.939 34.1224 167.754C33.0951 168.358 30.9833 167.938 30.0356 168.593C27.8141 170.127 25.8752 174.234 24.7083 176.92C24.1758 178.145 23.5173 180.001 23.5893 181.29C23.6506 182.387 24.2623 184.033 24.9516 184.883C26.0355 186.221 28.3827 187.647 30.06 188.177C31.9007 188.758 34.812 188.819 36.7252 188.452C38.2996 188.15 40.5244 187.219 41.6877 186.173C43.1063 184.898 43.9032 182.056 45.0447 180.426C47.0491 177.563 50.4749 174.261 52.4397 171.372C53.814 169.352 55.1733 166.312 56.9156 164.786C58.6052 163.307 61.5099 162.033 63.7512 161.292C64.7672 160.957 66.2197 160.878 67.1081 160.391C68.3463 159.712 69.858 158.272 70.6354 157.098C71.4922 155.804 71.471 153.22 72.4355 152.064C73.6872 150.564 76.8139 149.833 78.4683 148.583C80.5303 147.025 83.1719 144.596 84.7443 142.547C85.8627 141.09 86.8533 138.76 87.7121 137.113C89.3258 134.018 90.4426 128.762 92.8935 126.72C96.1155 124.036 103.094 123.269 107.586 122.463C108.138 122.363 108.913 122.42 109.459 122.3C110.466 122.078 111.92 121.702 112.768 121.135C113.763 120.47 115.053 119.153 115.516 118.08C116.345 116.161 116.844 112.608 116.1 110.805C114.125 106.016 106.185 101.399 101.383 98.1954C100.235 97.4295 98.4893 96.5 97.1505 96.1293C95.0823 95.5566 92.0437 95.3915 89.8771 95.5032C87.2457 95.639 83.7269 96.4545 81.1441 97.081C78.8044 97.6485 75.7516 98.7901 73.4329 99.4977C71.1612 100.191 67.7259 102.339 65.8432 101.752C64.4217 101.308 62.8933 98.6394 62.097 97.0684C61.1052 95.1115 60.3638 91.9409 60.151 89.6931C59.8663 86.6861 60.4232 82.5352 60.8564 79.513C61.3054 76.3809 62.0669 72.2042 62.8268 68.5439Z" sodipodi:nodetypes="csssssssssssssssssssssssssssssssssssssssssssssssssssssssssssssssssssssssssssssssssssssssssssssscc"/><path id="shape01" transform="translate(57.2799880056476, 124.538248889921)" fill="#af8f68" fill-rule="evenodd" stroke-opacity="0" stroke="#000000" stroke-width="0" stroke-linecap="square" stroke-linejoin="bevel" d="M67.7574 37.996C69.3266 37.1737 71.6474 36.2853 73.0604 35.2162C75.1727 33.618 77.4015 30.6755 79.2878 28.755C81.0009 27.0108 82.9906 24.1149 85.053 23.0325C86.6616 22.1884 89.654 22.6851 91.4021 21.9807C93.5825 21.1021 96.5376 19.1698 98.0917 17.3977C99.6365 15.6363 101.167 12.4534 101.765 10.1477C101.996 9.25535 102.192 7.80593 101.862 7.01722C101.411 5.94033 99.5259 5.07905 98.7241 4.08713C97.9199 3.09219 97.4729 0.921075 96.4862 0.368178C94.9874 -0.471596 91.8532 0.378956 89.8695 0.443308C88.6062 0.484295 86.9018 0.777946 85.6369 0.731308C84.5526 0.691331 83.0457 0.0164344 82.0366 0.217917C80.553 0.514153 78.8866 2.29132 77.4391 2.9727C74.6305 4.29469 70.6186 5.53893 67.6358 6.44122C64.1453 7.49707 59.2638 8.45868 55.7648 9.5967C51.9384 10.8412 46.9138 12.8057 43.237 14.4426C40.5353 15.6454 37.1125 17.6903 34.4311 18.963C32.288 19.9801 29.394 21.4089 27.1333 22.1435C24.7422 22.9204 21.3494 23.3173 18.9112 23.9717C17.08 24.4631 14.7328 25.5956 12.8784 25.8875C11.3248 26.132 9.04998 26.2693 7.50242 25.9626C6.49672 25.7633 5.29699 24.812 4.29141 24.5727C3.55607 24.3977 2.49354 24.2196 1.7372 24.2722C1.30091 24.3025 0.599238 24.35 0.374959 24.6103C-0.117469 25.1818 -0.029877 26.7828 0.107375 27.6656C0.316295 29.0093 1.26414 30.7655 1.85883 32.0482C2.72165 33.9092 3.7383 36.6106 5.09416 38.0461C6.13983 39.1532 8.13214 40.076 9.54578 40.6882C11.8832 41.7003 15.4671 41.9874 17.7679 43.0548C19.1206 43.6823 20.5872 45.3935 21.9763 45.8847C24.5179 46.7835 28.3986 46.7269 31.1471 46.6986C35.0261 46.6587 40.2132 45.8393 44.0884 45.3838C46.6254 45.0857 50.0685 44.8976 52.5295 44.2819C54.972 43.6708 58.0465 42.265 60.3867 41.3393C62.4744 40.5135 65.223 39.324 67.7574 37.996Z" sodipodi:nodetypes="cssssssssssssssssssssssssssssssssscc"/><path id="shape02" transform="translate(147.751781301951, 116.039521891235)" fill="#141010" fill-rule="evenodd" stroke-opacity="0" stroke="#000000" stroke-width="0" stroke-linecap="square" stroke-linejoin="bevel" d="M4.96835 9.04221C5.68951 9.90491 7.00504 10.8889 7.79015 11.7594C8.34435 12.374 9.02665 13.2588 9.5416 13.9132C9.75763 14.1877 9.98216 14.715 10.2714 14.8648C10.8115 15.1446 11.9099 15.2244 12.4607 15.0026C13.4547 14.6022 14.95 13.0946 15.1365 12.11C15.4471 10.4712 13.9594 7.39223 12.7769 5.91177C11.4542 4.25563 8.54797 2.85894 6.59818 1.80464C5.56193 1.24432 4.12492 0.51854 2.99796 0.264471C2.17123 0.0780854 0.390885 -0.197559 0.0788699 0.214384C-0.282994 0.69214 0.6977 2.50781 1.0519 3.45751C1.22568 3.92345 1.4483 4.58391 1.73302 4.98517C2.27367 5.74711 3.05706 6.75577 4.96835 9.04221Z" sodipodi:nodetypes="csssssssssscc"/><path id="shape1" transform="translate(129.430431363727, 112.873986097903)" fill="#141010" fill-rule="evenodd" stroke-opacity="0" stroke="#000000" stroke-width="0" stroke-linecap="square" stroke-linejoin="bevel" d="M0.0099224 2.54096C0.115794 3.31765 1.72217 4.44068 2.63711 4.84496C4.33565 5.59549 7.24003 5.89611 9.08344 5.58375C10.0734 5.41599 12.1634 4.64665 12.2458 4.06862C12.3632 3.24528 9.77138 1.33459 8.45097 0.750355C6.98861 0.103314 4.48258 -0.173073 2.90469 0.111746C2.0248 0.270572 -0.165222 1.25607 0.0099224 2.54096Z" sodipodi:nodetypes="csssscc"/>
</svg>
