<?xml version="1.0" standalone="no"?>
<!DOCTYPE svg PUBLIC "-//W3C//DTD SVG 20010904//EN" "http://www.w3.org/TR/2001/REC-SVG-20010904/DTD/svg10.dtd">
<!-- Created using Krita: https://krita.org -->
<svg xmlns="http://www.w3.org/2000/svg" 
    xmlns:xlink="http://www.w3.org/1999/xlink"
    xmlns:krita="http://krita.org/namespaces/svg/krita"
    xmlns:sodipodi="http://sodipodi.sourceforge.net/DTD/sodipodi-0.dtd"
    width="240pt"
    height="240pt"
    viewBox="0 0 240 240">
<defs/>
<path id="shape0" transform="translate(13.2889645438213, 64.0026018301659)" fill="#3b2300" fill-rule="evenodd" d="M175.381 61.7959C175.328 60.7581 175.644 59.0764 175.145 58.3092C174.936 57.9877 174.136 57.9784 173.82 57.7028C173.629 57.5365 173.389 57.2532 173.378 57.051C173.348 56.5006 173.902 55.4052 174.379 55.1106C174.985 54.737 176.404 55.3372 177.177 55.1106C177.921 54.8923 178.717 54.0444 179.445 53.7614C181.742 52.8676 185.148 52.13 187.602 52.0938C190.263 52.0546 194.012 52.6625 196.467 53.6401C197.941 54.2274 199.858 55.5089 201.002 56.6265C201.394 57.0098 201.651 58.0653 202.062 58.1728C202.581 58.3084 203.534 57.1547 204.183 57.1268C204.686 57.1051 205.549 57.4297 205.861 57.7938C206.179 58.1638 206.36 59.0615 206.274 59.5523C206.13 60.3733 205.288 61.5255 204.625 62.0839C204.287 62.3682 203.327 62.2848 203.123 62.5994C202.3 63.8656 203.857 67.0883 203.682 68.9663C203.279 73.2877 201.009 78.9268 199.647 83.1253C197.938 88.3943 195.215 95.2756 193.316 100.483C193.316 100.483 193.342 100.465 193.345 100.468C194.036 101.049 191.718 105.685 190.989 107.911C190.372 109.796 189.356 112.305 188.751 114.217C187.888 116.944 187.874 121.885 186.041 123.359C185.184 124.048 182.225 124.263 181.565 123.631C180.591 122.698 182.602 117.587 181.712 116.992C180.044 115.875 177.118 119.826 170.315 121.994C163.512 124.162 151.168 128.428 142.75 129.468C134.302 130.511 122.293 130.756 114.065 128.907C105.796 127.049 94.7679 121.808 87.7076 116.992C81.2623 112.595 73.5733 104.756 68.8006 98.5273C64.163 92.4753 59.556 83.0126 56.2254 76.061C53.5463 70.4692 50.3294 62.7644 48.48 56.8539C47.1849 52.7147 46.4094 46.9159 45.27 42.7253C44.0153 38.1109 42.5822 31.7019 40.4107 27.5051C38.5555 23.9197 35.171 19.1605 32.1058 16.5448C29.1215 13.9983 23.9671 11.698 20.2374 10.2385C16.637 8.82962 11.3883 8.17711 7.69161 6.99435C5.81998 6.39551 3.07596 5.77817 1.50709 4.67494C0.945029 4.27971 -0.0812979 3.30529 0.00513119 2.87096C0.125163 2.26777 1.98672 1.71167 2.89124 1.35501C4.19602 0.840539 6.04147 0.22203 7.42656 0.0816176C10.3522 -0.214971 14.3858 0.359958 17.3218 0.794114C20.8508 1.31596 25.6976 1.968 28.8662 3.40155C31.3891 4.54293 34.506 6.78143 36.7589 8.51029C38.958 10.198 37.7602 8.26774 43.6796 14.8166C49.5991 21.3655 50.944 25.0761 53.3687 29.8245C57.195 37.3176 60.2574 48.3287 63.5585 56.1111C65.2203 60.0289 67.2533 65.4581 69.5074 69.0421C70.67 70.8908 72.9756 72.8838 74.2194 74.6966C74.7208 75.4274 75.3469 77.3787 75.6625 77.3344C76.1828 77.2613 76.546 73.9556 76.7521 72.4833C77.0083 70.6534 77.0177 68.1653 77.1055 66.3134C77.1946 64.436 77.6584 61.8628 77.3411 60.0526C77.1623 59.0319 76.2373 57.8298 76.0453 56.8236C75.6949 54.9866 75.7977 52.3088 76.0159 50.4111C76.1458 49.2814 76.2207 47.2007 76.9288 46.6971C77.5915 46.2257 79.5063 46.6491 80.4628 47.0154C81.5826 47.4442 82.9981 48.5968 83.7318 49.547C84.9836 51.1682 85.964 54.0324 86.5001 56.0656C87.1665 58.5932 86.5307 62.5253 87.5309 64.8733C88.346 66.7868 90.5077 68.9384 91.9778 70.4975C93.9591 72.5986 97.1352 74.8645 99.2226 76.8644C100.835 78.4095 102.525 81.0074 104.317 82.2309C111.056 86.831 122.381 92.7328 130.116 92.7213C134.943 92.7141 143.342 89.6852 146.195 86.1269C146.68 85.5222 146.308 83.9679 146.726 83.2617C147.517 81.9256 149.679 80.7737 150.996 79.7751C153.017 78.2425 155.661 75.9969 157.917 74.9089C159.693 74.0522 162.409 72.9129 164.337 72.9078C164.946 72.9062 165.883 73.6987 166.369 73.5293C167.306 73.2023 167.834 71.055 168.636 70.1488C169.541 69.1265 170.921 67.3965 172.112 67.1169C173.023 66.9028 175.083 68.4151 175.587 68.0113C176.455 67.3149 175.476 63.6801 175.381 61.7959Z" sodipodi:nodetypes="csssssssssssssssssssssssszsssssssssssssssssszssssssssssssssssssssssssssscc"/><path id="shape01" transform="translate(97.6338840512607, 124.599549023881)" fill="#af8f68" fill-rule="evenodd" stroke-opacity="0" stroke="#000000" stroke-width="0" stroke-linecap="square" stroke-linejoin="bevel" d="M90.6233 0.00135634C90.9552 -0.0726964 91.7084 2.90719 92.5965 3.63963C93.862 4.68337 96.5227 5.04652 98.2509 5.45877C99.0403 5.64709 100.077 5.92184 100.872 6.00451C103.093 6.23551 106.249 5.67884 108.441 6.11063C109.375 6.29479 110.508 7.15972 111.445 7.32339C112.611 7.52738 114.615 6.67204 115.597 7.15664C115.996 7.35341 116.597 8.13538 116.569 8.52099C116.525 9.10731 115.282 9.88178 114.743 10.4766C113.548 11.7956 111.816 13.459 110.797 14.9031C109.985 16.0523 109.395 17.9474 108.529 19.0417C107.576 20.2451 105.722 21.3845 104.671 22.5284C103.216 24.112 101.437 26.3777 100.371 28.2132C99.7226 29.3301 99.5206 31.3837 98.6632 32.2608C96.54 34.4328 91.83 35.7582 88.7385 36.748C87.1622 37.2526 84.8652 37.3639 83.2902 37.8849C81.8395 38.3649 80.0569 39.5151 78.6077 40.0376C75.256 41.246 70.5878 42.2541 67.1221 43.0846C62.7124 44.1414 56.8154 45.6222 52.3382 46.3288C47.848 47.0374 41.6982 48.2965 37.2303 47.9508C33.8149 47.6866 28.6711 46.7919 26.0392 44.8734C23.295 42.8732 22.1245 36.8534 19.413 34.7469C18.3529 33.9234 15.9141 34.095 14.8482 33.2613C12.674 31.5606 11.1158 27.4518 9.66497 24.8781C8.91302 23.5442 8.38363 21.3404 7.33841 20.3454C6.18448 19.2469 3.62468 18.9781 2.24354 18.0715C1.52158 17.5976 0.365044 16.8195 0.0936805 16.0856C-0.0704834 15.6416 -0.0233385 14.569 0.270381 14.3119C0.78994 13.8572 2.48056 14.3237 3.42154 14.4029C5.54297 14.5814 8.47455 14.6849 10.4307 15.3882C12.3122 16.0648 14.4931 18.1374 16.3796 18.9962C18.0813 19.7709 20.5508 20.4578 22.3874 20.8608C23.4369 21.0911 24.9703 20.9924 25.9214 21.4066C26.6699 21.7325 27.4209 22.7267 28.1596 23.1044C30.2082 24.1517 33.4362 24.527 35.6105 25.3632C37.6285 26.1392 40.1044 28.1891 42.1484 28.4406C44.0506 28.6746 46.8003 27.146 48.8042 27.1065C50.5913 27.0713 53.0133 28.3441 54.7531 28.1828C56.7392 27.9988 59.3176 25.6162 61.2027 25.727C62.4641 25.8011 64.0274 27.2986 65.2962 27.8342C66.2293 28.2281 67.6734 29.0822 68.5357 28.8953C69.6691 28.6498 70.6846 26.5597 71.8047 25.8938C73.5882 24.8335 76.3434 23.8458 78.3721 23.5592C79.6774 23.3748 81.7626 24.321 82.8485 23.8321C84.2838 23.1858 85.7274 20.7124 86.5003 19.1478C86.9856 18.1655 87.4057 16.5866 87.5016 15.464C87.5954 14.3669 86.9511 12.787 87.1482 11.7196C87.2944 10.9277 88.1534 9.92167 88.3262 9.09705C88.5249 8.14912 87.9126 6.73209 88.179 5.85292C88.4196 5.05845 89.5307 4.31969 89.9165 3.56384C90.3249 2.76382 90.215 0.0924621 90.6233 0.00135634Z" sodipodi:nodetypes="csssssssssssssssssssssssssssssssssssssssssssssssscc"/><path id="shape02" transform="translate(197.356165553746, 125.922357575904)" fill="#141010" fill-rule="evenodd" stroke-opacity="0" stroke="#000000" stroke-width="0" stroke-linecap="square" stroke-linejoin="bevel" d="M4.94874 0.0125829C3.74569 0.0906748 1.86854 0.865862 1.03188 1.71045C0.512638 2.2346 -0.150854 3.57817 0.0305753 4.16628C0.257753 4.90269 1.88559 5.71635 2.79889 6.00058C3.94107 6.35605 5.82873 6.44992 6.95135 6.09154C7.59637 5.88563 8.51351 5.25056 8.77726 4.69687C9.12196 3.97321 9.09227 2.40918 8.71836 1.69529C8.41522 1.11652 7.28284 -0.138926 4.94874 0.0125829Z" sodipodi:nodetypes="cssssscc"/><path id="shape1" transform="matrix(0.991971968621104 0.126457951390908 -0.126457951390908 0.991971968621104 208.476301137619 122.4529855291)" fill="#141010" fill-rule="evenodd" stroke-opacity="0" stroke="#000000" stroke-width="0" stroke-linecap="square" stroke-linejoin="bevel" d="M0.174245 4.77397C0.605249 5.22814 3.47824 4.29987 4.51066 3.56083C4.89287 3.28723 5.42701 2.58367 5.42193 2.16976C5.41383 1.50922 4.45039 0.176187 3.85077 0.0184655C3.33046 -0.118392 2.22287 0.535516 1.74541 0.988976C1.18854 1.51785 -0.551359 4.00936 0.174245 4.77397Z" sodipodi:nodetypes="cssscc"/><path id="shape2" transform="translate(191.224944324335, 121.02913110716)" fill="#141010" fill-rule="evenodd" stroke-opacity="0" stroke="#000000" stroke-width="0" stroke-linecap="square" stroke-linejoin="bevel" d="M5.48444 5.1332C4.32074 5.57106 0.300593 3.49996 0.00672331 2.31354C-0.0976606 1.89211 1.04455 0.494782 1.27308 0.555036C1.28194 0.557373 1.26187 0.515685 1.2706 0.505427C1.63223 0.080627 2.40714 -0.125811 3.53826 0.0809615C4.23842 0.208954 5.30015 1.04759 5.72004 1.64652C6.13895 2.24404 6.65672 4.69211 5.48444 5.1332Z" sodipodi:nodetypes="csssscc"/>
</svg>
