<?xml version="1.0" standalone="no"?>
<!DOCTYPE svg PUBLIC "-//W3C//DTD SVG 20010904//EN" "http://www.w3.org/TR/2001/REC-SVG-20010904/DTD/svg10.dtd">
<!-- Created using Krita: https://krita.org -->
<svg xmlns="http://www.w3.org/2000/svg" 
    xmlns:xlink="http://www.w3.org/1999/xlink"
    xmlns:krita="http://krita.org/namespaces/svg/krita"
    xmlns:sodipodi="http://sodipodi.sourceforge.net/DTD/sodipodi-0.dtd"
    width="240pt"
    height="240pt"
    viewBox="0 0 240 240">
<defs/>
<path id="shape0" transform="translate(3.59641093953787, 73.6877221238307)" fill="#3b2300" fill-rule="evenodd" d="M225.426 20.0959C226.037 18.8523 223.883 15.3479 222.75 13.6222C221.665 11.9686 219.554 10.134 218.08 8.75123C217.315 8.03435 216.249 7.01016 215.331 6.50984C212.503 4.96949 208.053 3.89261 204.846 3.15401C200.006 2.03934 193.306 1.30676 188.329 0.875056C181.775 0.306583 172.946 -0.209785 166.387 0.0861862C160.381 0.35723 152.292 1.38808 146.416 2.69071C142.18 3.62973 136.684 5.68967 132.55 7.08584C126.998 8.96125 119.743 11.8556 114.184 13.6848C110.676 14.8391 105.853 16.0411 102.337 17.2159C99.1646 18.2762 94.9759 19.8847 91.853 21.1102C87.8469 22.6822 82.7057 25.4174 78.5954 26.6072C74.4318 27.8125 68.5478 28.7764 64.1946 29.1366C62.4925 29.2775 60.1117 29.2876 58.3807 29.1366C56.8732 29.0051 54.8919 28.2719 53.3939 28.2601C52.1477 28.2503 50.3172 28.3639 49.2585 28.9112C48.0689 29.5262 46.7338 31.121 45.9746 32.2796C45.7148 32.6759 45.3094 33.4002 45.3907 33.8072C45.5067 34.3875 46.4078 35.1614 46.9719 35.5603C47.463 35.9075 48.9517 36.0525 48.9666 36.3116C48.9793 36.531 47.8196 36.8786 47.3368 37.138C44.7937 38.5048 41.5176 40.5583 38.9687 41.9213C37.3296 42.7978 34.9911 43.8206 33.3981 44.8138C32.1625 45.5843 30.6323 46.8058 29.506 47.7314C28.6954 48.3976 27.6854 49.3808 26.9031 50.0855C25.3442 51.4898 23.2711 53.4121 21.6974 54.8187C20.3141 56.0551 18.4473 57.7951 16.9782 58.9759C15.4431 60.2098 13.3944 61.8876 11.6995 62.8577C10.46 63.5671 8.64149 64.2455 7.29655 64.7484C5.94868 65.2524 4.03971 65.8438 2.626 66.2511C1.85201 66.474 0.266204 66.521 0.0231363 67.0149C-0.097238 67.2594 0.277636 68.0392 0.558304 68.2545C1.43732 68.9289 3.4821 68.9877 4.71801 68.9307C8.33632 68.7637 13.13 66.9311 16.662 65.8378C18.802 65.1755 22.667 63.2327 23.3029 62.745C25.2865 61.2234 30.3292 59.0438 33.2035 57.2855C36.3631 55.3527 40.475 52.4542 43.8339 50.9119C46.675 49.6074 50.8093 47.5621 53.7831 47.5937C54.4057 47.6003 55.7633 47.9691 55.8508 48.3199C55.98 48.8375 54.393 50.0808 53.6615 50.7116C53.0656 51.2254 51.9556 51.5934 51.4722 52.1766C50.7553 53.0416 50.1448 54.6438 49.9153 55.7704C49.7114 56.7717 49.6621 58.298 49.964 59.2514C50.2519 60.1608 51.0765 61.5482 51.8614 62.0187C52.8461 62.609 54.8965 62.8335 55.9968 62.5071C57.2013 62.1496 58.4572 60.4628 59.524 59.602C60.7546 58.6091 62.2747 56.975 63.6594 56.2337C64.9483 55.5436 66.9497 55.0648 68.4029 54.8062C73.5504 53.89 81.843 53.2775 85.3823 52.2392C89.2341 51.1093 95.3851 50.7255 99.3453 49.3091C101.71 48.4635 99.5709 49.5423 99.6372 49.5095C104.846 46.9281 111.46 47.193 119.001 43.9624C126.542 40.7317 129.631 40.7639 134.083 38.7909C137.215 37.4027 141.231 34.1878 144.421 33.9575C145.366 33.8893 146.757 34.4952 147.656 34.9342C148.061 35.1315 148.899 35.5884 148.873 35.7982C148.8 36.3733 146.1 36.6962 144.981 37.2257C144.127 37.6293 142.798 38.1788 142.207 38.8785C141.898 39.245 141.486 40.1085 141.575 40.5564C141.647 40.9208 142.172 41.4235 142.524 41.5832C144.135 42.3146 147.106 42.1568 148.921 41.746C150.88 41.3028 153.408 39.7606 155.124 38.6031C156.726 37.5225 158.529 35.5923 160.014 34.3331C162.097 32.5671 164.733 29.9512 167.044 28.5481C168.836 27.4601 171.511 26.3022 173.539 25.7808C178.413 24.5277 185.344 24.2513 190.421 24.0528C192.78 23.9606 195.887 24.3015 198.23 24.2907C200.974 24.2781 204.655 24.258 207.376 23.9526C212.734 23.3513 223.726 23.5552 225.426 20.0959Z" sodipodi:nodetypes="cssssssssssssssssssssssssssssssssssssssssssssssssssszssssssssssssssscc"/><path id="shape01" transform="translate(196.923388268729, 84.365334584089)" fill="#af8f68" fill-rule="evenodd" stroke-opacity="0" stroke="#000000" stroke-width="0" stroke-linecap="square" stroke-linejoin="bevel" d="M6.33683 11.4343C6.62381 10.302 4.83167 7.99492 3.8556 6.78875C3.36609 6.18383 2.16696 5.74674 1.81224 5.09831C1.51695 4.55854 1.79853 3.4406 1.496 2.89449C1.26665 2.48046 0.464837 2.21501 0.231061 1.80509C0.0760903 1.53336 -0.0701844 0.981921 0.0364544 0.728225C0.162501 0.428358 0.849446 -0.0338588 1.15544 0.0019644C2.06065 0.107938 3.09292 2.09283 3.97723 2.93205C4.50914 3.43683 5.17898 4.29859 5.82599 4.5724C6.43904 4.83183 7.50496 4.5827 8.18559 4.7477C9.22708 5.00018 10.5309 5.7494 11.5426 6.16266C12.3272 6.48316 13.428 6.95437 14.267 7.17692C15.1847 7.42033 16.4764 7.64267 17.4294 7.67779C18.2794 7.70912 19.4515 7.35409 20.2998 7.42736C21.2631 7.51054 22.491 7.99596 23.4135 8.29136C24.4482 8.62266 25.7717 9.26478 26.8191 9.54353C28.5285 9.99843 31.982 9.52118 32.6817 10.5453C32.9373 10.9195 32.5267 12.1307 32.1951 12.6364C31.6243 13.507 30.2263 14.4806 29.2274 14.8402C27.6147 15.4209 25.0736 15.1089 23.2919 15.1407C21.2643 15.177 18.5008 15.3605 16.5293 15.003C15.6499 14.8435 14.5532 14.2592 13.6832 14.0263C12.7374 13.7731 11.4118 13.8417 10.4479 13.8385C9.68941 13.836 8.708 13.8 7.94234 13.8886C7.37805 13.9538 6.61929 14.0015 6.06925 13.9261C5.36812 13.83 3.84178 13.5886 3.78263 13.275C3.71419 12.9122 6.11443 12.3118 6.33683 11.4343Z" sodipodi:nodetypes="csssssssssssssssssssssssscc"/><path id="shape02" transform="translate(222.917866327131, 89.915322600902)" fill="#141010" fill-rule="evenodd" stroke-opacity="0" stroke="#000000" stroke-width="0" stroke-linecap="square" stroke-linejoin="bevel" d="M5.85959 4.75371C5.47782 4.71624 4.93333 5.65191 4.4639 5.89945C4.11442 6.08375 3.55206 6.30049 3.17311 6.27745C2.61074 6.24327 1.81186 5.83135 1.335 5.49093C0.875976 5.16325 0.208358 4.55782 0.04421 4.05406C-0.0548711 3.74999 0.0240639 3.1863 0.167359 2.88719C0.429687 2.33962 1.21662 1.79004 1.70445 1.36345C2.12607 0.994752 2.68881 0.446927 3.1868 0.224759C3.53166 0.0709061 4.08895 -0.0313848 4.45934 0.00875864C4.7812 0.0436427 5.27779 0.210609 5.51295 0.424324C5.88223 0.759928 6.14366 1.51379 6.32026 2.0138C6.5314 2.61157 6.68731 3.46307 6.76269 4.09398C6.80847 4.4772 6.96447 5.12646 6.79006 5.40641C6.74126 5.48473 6.5152 5.59652 6.42973 5.57076C6.23806 5.51299 6.12672 4.77993 5.85959 4.75371Z" sodipodi:nodetypes="csssssssssssscc"/><path id="shape1" transform="translate(213.945745977764, 87.4314149378906)" fill="#141010" fill-rule="evenodd" stroke-opacity="0" stroke="#000000" stroke-width="0" stroke-linecap="square" stroke-linejoin="bevel" d="M6.32529 1.74371C6.32199 2.14934 6.06474 2.83344 5.76884 3.07023C5.259 3.47822 4.03045 3.58607 3.31497 3.51397C2.45545 3.42735 1.16684 2.96133 0.537272 2.39875C0.300575 2.18724 -0.0588203 1.64547 0.00818612 1.41736C0.152573 0.925828 1.44646 0.462494 2.12453 0.250493C2.74459 0.0566269 3.69888 -0.0601372 4.34122 0.0321447C4.74829 0.0906275 5.34047 0.331749 5.66393 0.590927C5.92053 0.796526 6.32938 1.24175 6.32529 1.74371Z" sodipodi:nodetypes="csssssscc"/>
</svg>
