<?xml version="1.0" standalone="no"?>
<!DOCTYPE svg PUBLIC "-//W3C//DTD SVG 20010904//EN" "http://www.w3.org/TR/2001/REC-SVG-20010904/DTD/svg10.dtd">
<!-- Created using Krita: https://krita.org -->
<svg xmlns="http://www.w3.org/2000/svg" 
    xmlns:xlink="http://www.w3.org/1999/xlink"
    xmlns:krita="http://krita.org/namespaces/svg/krita"
    xmlns:sodipodi="http://sodipodi.sourceforge.net/DTD/sodipodi-0.dtd"
    width="240pt"
    height="240pt"
    viewBox="0 0 240 240">
<defs/>
<path id="shape0" transform="translate(29.4489283532119, 66.7596495966112)" fill="#3b2300" fill-rule="evenodd" d="M148.529 70.4583C147.759 70.2072 146.059 70.0662 145.646 70.5052C145.298 70.876 145.697 72.2119 145.774 72.9376C145.833 73.49 146.014 74.1836 146.048 74.7219C146.102 75.5792 146.127 76.7966 145.902 77.6144C145.69 78.3855 145.118 79.449 144.57 80.0374C143.537 81.1465 141.557 82.1967 140.137 82.836C139.061 83.3202 137.422 84.052 136.342 83.916C135.729 83.8389 134.824 83.2653 134.426 82.7797C133.983 82.2392 133.625 81.1293 133.605 80.413C133.579 79.483 134.092 78.1619 134.481 77.2763C134.671 76.8436 135.037 76.0811 135.43 75.8958C135.683 75.7763 136.198 76.0704 136.506 76.0179C136.794 75.9688 137.277 75.7726 137.418 75.5483C137.595 75.267 137.597 74.5556 137.455 74.2242C137.112 73.4262 135.928 72.4559 135.101 72.1017C134.189 71.7112 132.65 71.8923 131.598 71.8388C130.543 71.7851 129.366 71.6383 128.46 71.2565C127.667 70.922 126.51 70.2134 125.815 69.5661C125.47 69.2447 125.007 68.5637 124.629 68.533C123.596 68.4495 121.807 69.9485 120.652 70.5052C118.337 71.6209 115.227 72.6129 112.734 73.2475C110.193 73.8939 106.733 74.4588 104.122 74.4965C100.042 74.5555 94.6257 73.5186 90.512 73.3414C87.8557 73.227 84.2793 73.6188 81.6088 73.6043C78.5377 73.5877 74.436 73.4983 71.392 73.1723C68.256 72.8365 64.0431 72.2097 61.0292 71.3317C58.4126 70.5693 55.0292 69.1018 52.582 67.8944C50.1702 66.7045 47.1293 64.8055 44.8647 63.3678C43.885 62.7459 42.4734 61.991 41.6902 61.1703C41.1038 60.5558 40.8087 59.1952 40.1576 58.7379C39.6712 58.3963 38.6297 58.5732 38.0595 58.3153C37.1677 57.9119 36.2219 56.8499 35.4141 56.2492C34.1071 55.2773 32.1916 54.197 30.9625 53.1407C29.9559 52.2757 28.748 50.9248 27.9157 49.8819C27.1813 48.9618 26.0835 47.6992 25.7446 46.6231C25.5348 45.9571 25.5984 44.8824 25.7081 44.1626C25.802 43.5468 25.9947 42.2907 26.3649 42.1529C26.9131 41.9488 28.3261 43.1667 29.0468 43.7494C29.9078 44.4454 30.6665 45.8778 31.5646 46.4917C31.9707 46.7692 32.7673 46.8248 33.1701 47.1209C33.6737 47.491 34.0659 48.7528 34.5201 48.8019C34.7029 48.8217 35.1624 48.4461 35.2134 48.2384C35.4692 47.1978 33.6782 45.3958 33.4072 44.0969C33.4067 44.0942 33.409 44.0831 33.4072 44.0781C32.5589 41.5836 29.3702 38.9799 27.7515 36.7153C25.5894 33.6906 22.678 29.62 20.8916 26.3661C19.5103 23.85 18.4352 20.0639 16.9873 17.5946C15.7373 15.4627 13.6043 12.7898 11.9884 10.8704C10.2013 8.74776 7.81344 5.73618 5.58461 4.15565C4.63717 3.4838 3.02021 3.09829 1.95399 2.57792C1.36105 2.28853 0.0594612 1.90499 0.00184076 1.50731C-0.0464305 1.17415 0.866485 0.342495 1.35192 0.173741C2.68544 -0.289833 5.08981 0.272017 6.5698 0.718437C8.37619 1.26331 10.7809 2.59714 12.335 3.74244C14.8955 5.62942 17.8685 8.89852 19.9429 11.3588C21.3177 12.9893 22.9943 15.8296 24.3945 17.4444C25.6237 18.8619 26.6593 20.4943 27.9157 21.8864C29.6021 23.755 32.1085 26.3081 33.8633 28.1035C36.5654 30.868 40.8129 33.9698 43.8612 36.396C46.7378 38.6855 50.425 42.0561 53.6037 43.8245C56.7595 45.5801 61.454 47.4982 64.9882 48.1445C67.9588 48.6878 72.1788 48.0724 75.2598 48.107C81.1938 48.1736 89.1603 48.9275 95.0914 48.6704C98.3691 48.5284 102.744 47.6528 106.038 47.3838C110.066 47.0548 115.469 46.6407 119.502 46.7264C120.889 46.7559 122.737 47.1791 124.118 47.149C126.867 47.0892 130.513 45.9631 133.259 45.9376C137.146 45.9014 142.327 47.2412 146.23 47.412C148.522 47.5123 151.586 47.1654 153.875 47.243C155.629 47.3024 157.999 47.3863 159.695 47.7689C162.03 48.2959 165.057 49.4817 167.175 50.5675C169.159 51.5849 171.633 53.2768 173.323 54.6997C174.094 55.3486 175.099 56.3185 175.622 57.1602C176.104 57.9354 176.448 59.1578 176.698 60.0433C176.783 60.3434 176.722 60.8513 176.899 61.0482C177.12 61.2944 177.805 61.2415 178.103 61.452C178.45 61.6972 178.873 62.2424 178.997 62.6447C179.171 63.2079 179.039 64.1023 178.924 64.7014C178.658 66.0867 178.032 67.956 177.337 69.1717C176.625 70.4157 175.196 71.803 174.181 72.8343C173.391 73.6362 173.378 74.2805 171.353 75.3136C169.328 76.3466 169.188 76.5869 168.269 76.572C167.52 76.5598 164.998 77.1672 164.219 77.2388C161.593 77.4801 161.129 76.8457 159.494 76.7598C157.64 76.6625 155.847 75.4424 154.167 74.628C152.444 73.7935 150.756 71.184 148.529 70.4583Z" sodipodi:nodetypes="csssssssssssssssssssssssssssssssssssssssssssssssssssssssssssssssssssssssssssssssszssscc"/><path id="shape01" transform="translate(177.685395694552, 136.353829387412)" fill="#af8f68" fill-rule="evenodd" stroke-opacity="0" stroke="#000000" stroke-width="0" stroke-linecap="square" stroke-linejoin="bevel" d="M11.3669 9.47591C10.41 9.30034 9.06689 9.1976 8.21062 8.79974C7.49446 8.46697 6.66742 7.69062 6.05779 7.15626C5.35369 6.53908 4.5504 5.63808 3.90496 4.98687C3.02868 4.10275 1.81406 2.97851 0.985862 2.05678C0.666502 1.70135 -0.024454 1.16593 0.000666948 0.817127C0.0193547 0.55765 0.608182 0.0062509 0.876395 8.31142e-05C1.36983 -0.0112638 2.02809 1.14236 2.59136 1.53087C3.17566 1.93387 4.08416 2.29322 4.70771 2.64843C5.41014 3.04858 6.30081 3.66148 7.02474 4.01017C7.31425 4.14961 7.66885 4.48273 7.9552 4.49852C8.33426 4.51942 8.84958 4.09621 9.25055 3.99139C9.64345 3.88867 10.1467 3.81814 10.5277 3.83174C12.0856 3.88734 14.262 4.26936 15.7273 4.81782C16.5055 5.10908 17.3527 5.94889 18.1173 6.27347C18.4316 6.4069 18.8907 6.51967 19.2302 6.5646C19.6071 6.6145 20.095 6.48645 20.4343 6.574C20.6508 6.62983 21.0481 6.82895 21.0729 6.97782C21.112 7.21295 20.5364 7.66174 20.2701 7.91695C19.9454 8.22823 19.4739 8.60146 19.0843 8.79974C18.3591 9.16872 17.2634 9.47509 16.4571 9.61678C15.804 9.73153 14.8994 9.75986 14.2313 9.76704C13.6186 9.77362 12.7942 9.7378 11.3669 9.47591Z" sodipodi:nodetypes="csssssssssssssssssssscc"/><path id="shape02" transform="matrix(0.985051794378654 0.172258417476214 -0.172258417476214 0.985051794378654 188.778667371797 138.011974230158)" fill="#141010" fill-rule="evenodd" stroke-opacity="0" stroke="#000000" stroke-width="0" stroke-linecap="square" stroke-linejoin="bevel" d="M2.23958 3.61217C1.89004 3.63197 1.35199 3.7007 1.06738 3.55347C0.779189 3.40439 0.534146 2.91928 0.342171 2.62373C0.222185 2.43902 0.00455472 2.17071 8.9258e-05 1.97339C-0.00512793 1.74284 0.219525 1.40064 0.369537 1.19626C0.496479 1.02331 0.727719 0.82531 0.903184 0.696169C1.21142 0.469307 1.66118 0.166087 2.02065 0.073995C2.43087 -0.0310991 3.07876 -0.0216146 3.49388 0.0857342C3.88156 0.185987 4.43689 0.460302 4.71169 0.745473C5.0729 1.12031 5.55254 1.91528 5.51444 2.38426C5.4952 2.62109 5.19337 2.99816 4.97623 3.13556C4.64189 3.34712 3.99732 3.32861 3.57598 3.40086C3.23765 3.45888 2.7875 3.58113 2.23958 3.61217Z" sodipodi:nodetypes="csssssssssscc"/><path id="shape1" transform="translate(195.392677328627, 133.124553115577)" fill="#141010" fill-rule="evenodd" stroke-opacity="0" stroke="#000000" stroke-width="0" stroke-linecap="square" stroke-linejoin="bevel" d="M0.210012 4.04992C0.355378 4.25012 0.709854 4.47314 0.953469 4.53122C1.41527 4.64131 2.16558 4.53714 2.61826 4.36453C3.0913 4.18414 3.64692 3.68463 4.03676 3.33618C4.44045 2.97536 5.10754 2.46671 5.25001 1.99792C5.34622 1.68134 5.22 1.09398 5.05845 0.784091C4.92446 0.527083 4.59414 0.170634 4.33323 0.0726993C3.91434 -0.0845365 3.17194 0.0455525 2.70493 0.159569C2.2603 0.268118 1.6603 0.532603 1.29099 0.800525C1.04189 0.98124 0.754248 1.31203 0.584021 1.57061C0.364456 1.90414 0.105547 2.41144 0.0366904 2.79618C-0.0237828 3.13407 -0.0356883 3.71152 0.210012 4.04992Z" sodipodi:nodetypes="cssssssssscc"/><path id="shape2" transform="matrix(0.984723638544268 -0.174124540752141 0.174124540752141 0.984723638544268 184.052348279355 130.417402474558)" fill="#141010" fill-rule="evenodd" stroke-opacity="0" stroke="#000000" stroke-width="0" stroke-linecap="square" stroke-linejoin="bevel" d="M3.84762 6.33053C4.09591 6.2394 4.41958 5.91051 4.5409 5.66844C4.70852 5.33402 4.72155 4.73784 4.70054 4.34427C4.67112 3.79325 4.5068 3.0239 4.28092 2.52236C3.9575 1.80424 3.65751 1.54948 3.12848 0.96027C2.71979 0.505078 1.94807 0.0392863 1.62181 0.00548796C1.26041 -0.0319499 0.840425 0.125159 0.54539 0.385053C0.344454 0.562056 0.134242 1.02538 0.0603943 1.29053C-0.0779686 1.78732 0.0479141 2.18278 0.172901 2.68044C0.299389 3.18408 0.482342 3.90238 0.800811 4.33253C1.13048 4.77782 1.65479 5.32637 2.07791 5.68488C2.29044 5.86495 2.60127 6.11202 2.85786 6.21314C3.1056 6.31078 3.53574 6.445 3.84762 6.33053Z" sodipodi:nodetypes="csssssssssscc"/>
</svg>
